<svg id="bf8998cd-0d6f-4c64-a939-9b6484b15624" data-name="Icon" xmlns="http://www.w3.org/2000/svg" xmlns:xlink="http://www.w3.org/1999/xlink" viewBox="0 0 176 125"><defs><style>.a6c5f522-4b39-4986-b132-71d9bc82eace,.a75b8b19-4a22-4e6f-a90b-52c8c000bf01,.b4172251-2857-4bb8-bff5-b0bf186a969f,.b4cfc3e8-2ec8-4f9b-88ac-5c8678909bd5,.f67edc3f-d2a5-4b32-8f31-becff23d99d2{fill:none;stroke-miterlimit:10;}.a6c5f522-4b39-4986-b132-71d9bc82eace,.b4172251-2857-4bb8-bff5-b0bf186a969f,.b4cfc3e8-2ec8-4f9b-88ac-5c8678909bd5,.f67edc3f-d2a5-4b32-8f31-becff23d99d2{stroke-width:13px;}.f67edc3f-d2a5-4b32-8f31-becff23d99d2{stroke:url(#a4386100-44e6-4776-8ac6-a0c62d2e4030);}.a6c5f522-4b39-4986-b132-71d9bc82eace{stroke:url(#a2cc5831-f116-4f9c-9305-6ca7e3ef497e);}.b4cfc3e8-2ec8-4f9b-88ac-5c8678909bd5{stroke:url(#ebea1b04-415e-4ef9-bbd8-6954401ab091);}.b4172251-2857-4bb8-bff5-b0bf186a969f{stroke:url(#e2d608fb-e3a3-4c0c-811b-ea176e71a7aa);}.a75b8b19-4a22-4e6f-a90b-52c8c000bf01{stroke-width:12px;stroke:url(#a12791f6-2c65-42eb-b768-b83b00258f0e);}</style><linearGradient id="a4386100-44e6-4776-8ac6-a0c62d2e4030" x1="32" y1="65.5" x2="32" y2="134.5" gradientUnits="userSpaceOnUse"><stop offset="0" stop-color="#0cf"/><stop offset="1" stop-color="#6666fe"/></linearGradient><linearGradient id="a2cc5831-f116-4f9c-9305-6ca7e3ef497e" x1="32" y1="9.5" x2="32" y2="78.5" xlink:href="#a4386100-44e6-4776-8ac6-a0c62d2e4030"/><linearGradient id="ebea1b04-415e-4ef9-bbd8-6954401ab091" x1="160" y1="65.5" x2="160" y2="134.5" xlink:href="#a4386100-44e6-4776-8ac6-a0c62d2e4030"/><linearGradient id="e2d608fb-e3a3-4c0c-811b-ea176e71a7aa" x1="160" y1="9.5" x2="160" y2="78.5" xlink:href="#a4386100-44e6-4776-8ac6-a0c62d2e4030"/><linearGradient id="a12791f6-2c65-42eb-b768-b83b00258f0e" x1="96" y1="34" x2="96" y2="110" xlink:href="#a4386100-44e6-4776-8ac6-a0c62d2e4030"/></defs><g id="bbf44526-0ce8-408d-829d-189af33c0035" data-name="Brackets"><path id="a6d710e3-8c76-42a5-a4f5-eafad7734751" data-name="l-bottom" class="f67edc3f-d2a5-4b32-8f31-becff23d99d2" d="M56,128H48s-16,0-16-16V96s0-24-16-24H8" transform="translate(-8 -9.5)"/><path id="f7ce7bbf-dd3a-42bb-bad8-4b4c18bd352d" data-name="l-top" class="a6c5f522-4b39-4986-b132-71d9bc82eace" d="M56,16H48S32,16,32,32V48s0,24-16,24H8" transform="translate(-8 -9.5)"/><path id="a3545279-d83e-49ef-b580-f49796deb44b" data-name="r-bottom" class="b4cfc3e8-2ec8-4f9b-88ac-5c8678909bd5" d="M136,128h8s16,0,16-16V96s0-24,16-24h8" transform="translate(-8 -9.5)"/><path id="f21f1d39-cc39-471f-976b-b9bd3a5f5818" data-name="r-top" class="b4172251-2857-4bb8-bff5-b0bf186a969f" d="M136,16h8s16,0,16,16V48s0,24,16,24h8" transform="translate(-8 -9.5)"/></g><path id="e5857524-1cc9-47fa-a974-3bdceb775ff8" data-name="2" class="a75b8b19-4a22-4e6f-a90b-52c8c000bf01" d="M72,56c0-16,16-16,24-16s24,0,24,16S104,72,96,72,72,72,72,88v16h53.99844" transform="translate(-8 -9.5)"/></svg>