<svg xmlns="http://www.w3.org/2000/svg" viewBox="0 0 128 128"><defs><style>.eee2f891-f99a-4b81-a4a0-b62d01b6fb28{fill:#309ff2;}.e9d51086-6a9d-4340-b326-6d474f56044d{fill:#fff;}</style></defs><g id="f5dbdaaf-02cb-4dda-a01f-9e348cc15bac" data-name="Layer 3"><rect class="eee2f891-f99a-4b81-a4a0-b62d01b6fb28" x="8" y="8" width="112" height="112"/><g id="a9252dfc-bf61-41ce-8b72-4b8c618db9b8" data-name="Layer 4"><path id="ba539fdc-c212-42ff-8d73-ae045a85bcea" data-name="2" class="e9d51086-6a9d-4340-b326-6d474f56044d" d="M52,81V76.395l8.46585-7.90519q2.33818-2.22573,3.74952-3.83747a21.07631,21.07631,0,0,0,2.1762-2.87845,7.9883,7.9883,0,0,0,1.00821-2.34051,10.10494,10.10494,0,0,0,.24115-2.22574,5.07725,5.07725,0,0,0-.32251-1.80326,4.16935,4.16935,0,0,0-.93992-1.48382,4.44019,4.44019,0,0,0-1.55879-.99844,5.83844,5.83844,0,0,0-2.15006-.37061,8.71268,8.71268,0,0,0-3.84395.85738A14.28081,14.28081,0,0,0,55.467,55.69827L52,51.45147a18.81429,18.81429,0,0,1,5.14633-3.23662A15.69694,15.69694,0,0,1,63.34082,47a16.28848,16.28848,0,0,1,4.67782.62713,10.12349,10.12349,0,0,1,3.58682,1.85444,8.25081,8.25081,0,0,1,2.31131,3.07,10.35988,10.35988,0,0,1,.81935,4.2468,11.91933,11.91933,0,0,1-.56367,3.7227,14.129,14.129,0,0,1-1.63869,3.36384,22.93622,22.93622,0,0,1-2.64834,3.27464q-1.57114,1.63767-3.58682,3.45372l-5.10784,4.63055H76V81Z"/><path id="a77337b1-6744-4d7d-adea-313a6c0098cc" data-name="Bracket Left" class="e9d51086-6a9d-4340-b326-6d474f56044d" d="M16,61.03691h3.6782a5.39732,5.39732,0,0,0,2.759-.69442,5.99371,5.99371,0,0,0,1.97657-1.85213,9.1139,9.1139,0,0,0,1.19563-2.59226,10.472,10.472,0,0,0,.41368-2.91687V38.07381a23.54417,23.54417,0,0,1,.68963-6.01813,9.7238,9.7238,0,0,1,6.8045-7.12962A22.7648,22.7648,0,0,1,40.55178,24H48v6.01864H40.184q-3.86234,0-5.47114,1.75917-1.61033,1.75941-1.60931,6.38845V50.9442q0,6.20406-1.83885,9.12042a9.62176,9.62176,0,0,1-4.23011,3.93487,10.11552,10.11552,0,0,1,4.23011,4.167q1.8381,3.05555,1.83885,8.88877V89.83323q0,4.62828,1.65522,6.38846,1.655,1.75865,5.517,1.75967H48V104H40.55178a22.79427,22.79427,0,0,1-7.03454-.92657,9.72121,9.72121,0,0,1-6.8045-7.13012,23.53737,23.53737,0,0,1-.68963-6.01763V75.01826a10.16345,10.16345,0,0,0-.41368-2.82441,9.162,9.162,0,0,0-1.19563-2.59277,6.70341,6.70341,0,0,0-1.93066-1.89785,4.90647,4.90647,0,0,0-2.71262-.74064H16Z"/><path id="b4abff7e-fd72-4ebc-ae6f-9eaf8eb75de5" data-name="Bracket Left" class="e9d51086-6a9d-4340-b326-6d474f56044d" d="M112,66.96259h-3.77052a4.90647,4.90647,0,0,0-2.71262.74064,6.70341,6.70341,0,0,0-1.93066,1.89785,9.162,9.162,0,0,0-1.19563,2.59277,10.16345,10.16345,0,0,0-.41368,2.82441V89.92568a23.53737,23.53737,0,0,1-.68963,6.01763,9.72121,9.72121,0,0,1-6.8045,7.13012A22.79427,22.79427,0,0,1,87.44822,104H80V97.98136h7.72417q3.86158,0,5.517-1.75967,1.655-1.76019,1.65522-6.38846V77.05529q0-5.83373,1.83885-8.88877a10.11552,10.11552,0,0,1,4.23011-4.167,9.62176,9.62176,0,0,1-4.23011-3.93487q-1.8381-2.91687-1.83885-9.12042V38.16626q0-4.62828-1.60931-6.38845-1.6073-1.7579-5.47114-1.75917H80V24h7.44822a22.7648,22.7648,0,0,1,7.03454.92606,9.7238,9.7238,0,0,1,6.8045,7.12962,23.54417,23.54417,0,0,1,.68963,6.01813V52.98123a10.472,10.472,0,0,0,.41368,2.91687,9.1139,9.1139,0,0,0,1.19563,2.59226,5.99371,5.99371,0,0,0,1.97657,1.85213,5.39732,5.39732,0,0,0,2.759.69442H112Z"/></g></g></svg>