<svg xmlns="http://www.w3.org/2000/svg" xmlns:xlink="http://www.w3.org/1999/xlink" viewBox="0 0 204 172"><defs><style>.e361b8da-8b1b-4c70-80d8-702f0c6b5dba{fill:#309ff2;}.bfdc1955-75bb-4c5e-b895-c141cd00a656{fill:#fff;}.afb30c25-2295-4319-a1e7-6f1155a7f099{fill:#222;}.fca9e070-af95-47dc-9f55-0c46bbcf6673{fill:url(#bacd40aa-c5ee-4ac8-8832-b76dbd1caec0);}.b2ba7970-79e0-4367-a3f7-088a7c5e646d{fill:url(#bd1ac899-5f59-4a30-814f-f1df3cac9c8a);}</style><linearGradient id="bacd40aa-c5ee-4ac8-8832-b76dbd1caec0" x1="330.82043" y1="22.45919" x2="366.06838" y2="-7.86694" gradientTransform="matrix(0.56254, 0, 0, -0.56797, -49.20852, 141.66349)" gradientUnits="userSpaceOnUse"><stop offset="0" stop-color="#5a9fd4"/><stop offset="1" stop-color="#306998"/></linearGradient><linearGradient id="bd1ac899-5f59-4a30-814f-f1df3cac9c8a" x1="379.64412" y1="-25.97842" x2="367.12012" y2="-8.25912" gradientTransform="matrix(0.56254, 0, 0, -0.56797, -49.20852, 141.66349)" gradientUnits="userSpaceOnUse"><stop offset="0" stop-color="#ffd43b"/><stop offset="1" stop-color="#ffe873"/></linearGradient></defs><g id="f5e2bb2f-1da9-42e5-b297-9c8262871a56" data-name="Layer 1"><g id="bbaee6ba-eec9-49c8-9658-0034f0d3ffba" data-name="baa5f1f1-43b0-4cb0-a6e4-5cb0b2c4b56f"><rect class="e361b8da-8b1b-4c70-80d8-702f0c6b5dba" x="48" y="8" width="104" height="104"/><g id="bd8717a7-79b8-4a29-b745-b2dfa16f73c0" data-name="b2c2402d-23d3-40ee-9cd4-8336a742208d"><path id="a7f6a28d-137e-41b5-b4a9-875574db2142" data-name="b8cb871c-c666-47a3-b1ae-5fc63df33640" class="bfdc1955-75bb-4c5e-b895-c141cd00a656" d="M88.85714,76.93046V72.65457l7.86115-7.34026q2.17114-2.06669,3.4817-3.56324a19.56071,19.56071,0,0,0,2.02075-2.67274,7.41333,7.41333,0,0,0,.9362-2.17329,9.38206,9.38206,0,0,0,.22392-2.06668,4.71425,4.71425,0,0,0-.29947-1.6744,3.87159,3.87159,0,0,0-.87278-1.37779,4.121,4.121,0,0,0-1.44745-.92708,5.42067,5.42067,0,0,0-1.99648-.34412,8.08964,8.08964,0,0,0-3.56938.79616,13.26219,13.26219,0,0,0-3.1188,2.12573l-3.21936-3.94332a17.46912,17.46912,0,0,1,4.77874-3.00532,14.575,14.575,0,0,1,5.752-1.128,15.124,15.124,0,0,1,4.34369.58232,9.39723,9.39723,0,0,1,3.33062,1.72191,7.66153,7.66153,0,0,1,2.14622,2.85061,9.62122,9.62122,0,0,1,.76083,3.94332,11.06814,11.06814,0,0,1-.52341,3.45666,13.11707,13.11707,0,0,1-1.52164,3.12349A21.29285,21.29285,0,0,1,105.465,64.0791q-1.45893,1.5206-3.33063,3.20686l-4.743,4.29964h13.75144v5.34486Z"/><path id="e11ebdd8-8c45-4dbf-917d-5feee54c5d9e" data-name="aad281b3-fc14-4794-b798-d24c8ccd8a6b" class="bfdc1955-75bb-4c5e-b895-c141cd00a656" d="M55.42857,57.21429h3.38786a5.0252,5.0252,0,0,0,2.56461-.64418A5.56688,5.56688,0,0,0,63.21836,54.852a8.44636,8.44636,0,0,0,1.11139-2.4047,9.69617,9.69617,0,0,0,.38454-2.70582V35.91266a21.7977,21.7977,0,0,1,.641-5.5827,9.02833,9.02833,0,0,1,6.3251-6.61376,21.20141,21.20141,0,0,1,6.539-.85906h6.92347v5.57143H77.83469q-3.61138,0-5.11566,1.63441-1.5057,1.63464-1.50474,5.93539V47.87011q0,5.76408-1.71938,8.47361a8.97418,8.97418,0,0,1-3.95526,3.65581A9.42975,9.42975,0,0,1,69.49491,63.871q1.71867,2.83886,1.71938,8.25838V84.00116q0,4.3,1.54767,5.9354,1.54746,1.63394,5.15854,1.63487h7.22236v5.57143H78.21938a21.27135,21.27135,0,0,1-6.53894-.85772,9.0153,9.0153,0,0,1-6.32511-6.60031,21.702,21.702,0,0,1-.641-5.57049V70.35981a9.688,9.688,0,0,0-.38325-2.65557,8.67458,8.67458,0,0,0-1.10767-2.43777,6.25494,6.25494,0,0,0-1.78862-1.78439,4.49533,4.49533,0,0,0-2.513-.69637H55.42857Z"/><path id="bc649a0e-065e-42ba-af34-6cfd33edf796" data-name="f1d6acf5-b0af-4bdb-b492-7202bf6b13ad" class="bfdc1955-75bb-4c5e-b895-c141cd00a656" d="M144.57143,62.78571H141.0978a4.568,4.568,0,0,0-2.52151.687,6.225,6.225,0,0,0-1.79464,1.76051,8.49079,8.49079,0,0,0-1.1114,2.40514,9.40993,9.40993,0,0,0-.38454,2.62V84.08705a21.79122,21.79122,0,0,1-.641,5.58215,9.02585,9.02585,0,0,1-6.32511,6.61414,21.2291,21.2291,0,0,1-6.53894.85952h-6.92348V91.57143h7.22233q3.61069,0,5.15856-1.63487,1.54749-1.63536,1.54768-5.9354V72.12942q0-5.42,1.71939-8.25839a9.4298,9.4298,0,0,1,3.95528-3.87148,8.97423,8.97423,0,0,1-3.95528-3.65581q-1.71869-2.71-1.71939-8.47361V35.99837q0-4.30005-1.50475-5.93539-1.50286-1.63323-5.11568-1.63441h-7.30814V22.85714h6.92348a21.24363,21.24363,0,0,1,6.53894.85725,9.01771,9.01771,0,0,1,6.32511,6.59986,21.70825,21.70825,0,0,1,.641,5.571v13.755a9.983,9.983,0,0,0,.38325,2.74249A8.62893,8.62893,0,0,0,136.77663,54.82a5.58683,5.58683,0,0,0,1.83115,1.74141,4.94242,4.94242,0,0,0,2.556.65291h3.40762Z"/></g></g></g><g id="ebe6b9c8-fada-4353-a693-674c42043871" data-name="Layer 2"><path class="afb30c25-2295-4319-a1e7-6f1155a7f099" d="M26,132h4.39565v28H26Z"/><path class="afb30c25-2295-4319-a1e7-6f1155a7f099" d="M38.61,150.65327c0,3.11583,1.69607,5.88537,5.35923,5.88537a4.62152,4.62152,0,0,0,4.85854-3.30813h4.16456C52.028,157.57675,48.32632,160,43.96918,160c-6.24649,0-9.75559-4.34623-9.75559-10.46146,0-5.654,3.70167-10.50051,9.64-10.50051,6.285,0,10.14074,5.654,9.40825,11.61524Zm10.25628-2.88447c-.15405-2.76879-2.04341-5.26941-5.01259-5.26941A5.2028,5.2028,0,0,0,38.61,147.7688Z"/><path class="afb30c25-2295-4319-a1e7-6f1155a7f099" d="M61.9783,149l-6.90195-9.42335h5.32143l4.16385,6.11523,4.35714-6.11523h5.09034l-6.78641,9.19274L74.85714,160H69.57423l-5.05112-7.885L59.62606,160H54.4594Z"/><path class="afb30c25-2295-4319-a1e7-6f1155a7f099" d="M80.75771,150.65327c0,3.11583,1.69678,5.88537,5.35995,5.88537a4.62153,4.62153,0,0,0,4.85854-3.30813h4.16456C94.17647,157.57675,90.47479,160,86.11766,160c-6.24649,0-9.7556-4.34623-9.7556-10.46146,0-5.654,3.70168-10.50051,9.64005-10.50051,6.285,0,10.14074,5.654,9.40825,11.61524Zm10.257-2.88447c-.15406-2.76879-2.04341-5.26941-5.0126-5.26941a5.20385,5.20385,0,0,0-5.2444,5.26941Z"/><path class="afb30c25-2295-4319-a1e7-6f1155a7f099" d="M98.76683,139.57661h4.12534v3.846h.07774A6.43145,6.43145,0,0,1,108.792,139.038a10.50033,10.50033,0,0,1,1.65827.11568v4.23055a15.78589,15.78589,0,0,0-1.88936-.1923c-3.0077,0-5.39845,2.42326-5.39845,6.8078V160H98.76683Z"/><path class="afb30c25-2295-4319-a1e7-6f1155a7f099" d="M129.96149,160H111.53013a12.98162,12.98162,0,0,1,5.93837-10.73112c3.50911-2.53819,8.05882-4.65346,8.13585-8.84646.03851-1.923-.771-4.76914-4.54971-4.76914-3.47059,0-4.5112,2.96184-4.62745,6.73118h-4.39566c0-5.962,3.278-10.38446,9.29271-10.38446C127.91807,132,130,136.80707,130,140.26918c0,4.26887-2.93,6.92273-6.01469,9.07707-3.12325,2.15358-6.40126,3.80764-7.17227,6.19184h13.14845Z"/><g id="ef8870f8-39cb-4ca4-afc3-c94d6208b718" data-name="Layer 3"><path id="a5ae1b1b-4f6e-4029-babf-22d1f3881f0d" data-name="path1948" class="fca9e070-af95-47dc-9f55-0c46bbcf6673" d="M155.53564,128.00029a25.06122,25.06122,0,0,0-4.14937.35035c-3.67451.64207-4.34166,1.986-4.34166,4.4644v3.27323h8.68332v1.09108h-11.9421a5.409,5.409,0,0,0-5.42455,4.3543,15.88484,15.88484,0,0,0,0,8.72861c.61725,2.54262,2.0913,4.3543,4.61492,4.3543h2.98552v-3.92388a5.48846,5.48846,0,0,1,5.42455-5.33526h8.6732a4.35025,4.35025,0,0,0,4.34167-4.36431V132.815c0-2.32752-1.98522-4.076-4.34167-4.4644A27.37679,27.37679,0,0,0,155.53564,128.00029Zm-4.69587,2.6326a1.63663,1.63663,0,1,1-1.62939,1.64162A1.63829,1.63829,0,0,1,150.83977,130.63289Z"/><path id="ae7050a5-e4f4-4830-a5ea-86d832c8f91d" data-name="path1950" class="b2ba7970-79e0-4367-a3f7-088a7c5e646d" d="M165.484,137.17935v3.81376a5.53835,5.53835,0,0,1-5.42455,5.44538h-8.6732a4.40473,4.40473,0,0,0-4.34166,4.3643v8.17807c0,2.32753,2.0463,3.69655,4.34166,4.36431a14.681,14.681,0,0,0,8.6732,0c2.18606-.626,4.34167-1.8859,4.34167-4.36431v-3.27323h-8.67321v-1.09107H168.7428c2.52361,0,3.464-1.74105,4.34166-4.3543.90657-2.6903.868-5.27746,0-8.72861-.62367-2.48483-1.81484-4.3543-4.34166-4.3543Zm-4.878,20.71044a1.63663,1.63663,0,1,1-1.62939,1.63161A1.62969,1.62969,0,0,1,160.606,157.88979Z"/></g></g></svg>